<svg width="199" height="198" viewBox="0 0 199 198" fill="none" xmlns="http://www.w3.org/2000/svg">
<g clip-path="url(#clip0_1073_1150)">
<path d="M99.5 198C154.452 198 199 153.676 199 99C199 44.3238 154.452 2.78853e-10 99.5 1.7964e-10C44.5477 0 0 44.3238 -1.78738e-10 99C-2.77452e-10 153.676 44.5477 198 99.5 198Z" fill="#0E75BB"/>
<path d="M99.4995 198C154.452 198 199 153.676 199 99C199 44.3238 154.452 0 99.4995 0L99.4995 99L99.4995 198Z" fill="#004471"/>
<path d="M146.141 49.5L52.8596 49.5L52.8596 68.0625L146.141 68.0625L146.141 49.5Z" fill="white"/>
<path d="M108.828 173.25L108.828 49.5L90.1721 49.5L90.1721 173.25L108.828 173.25Z" fill="white"/>
</g>
<defs>
<clipPath id="clip0_1073_1150">
<rect width="199" height="198" fill="white"/>
</clipPath>
</defs>
</svg>
