<svg width="64" height="64" viewBox="0 0 64 64" fill="none" xmlns="http://www.w3.org/2000/svg">
<g id="Type=Calendar, Size=Medium">
<path id="Vector" d="M8 22H56M8 22V48.4C8 51.76 8 53.44 8.654 54.724C9.22923 55.8529 10.1471 56.7708 11.276 57.346C12.557 58 14.237 58 17.591 58H46.409C49.763 58 51.44 58 52.721 57.346C53.852 56.77 54.77 55.852 55.346 54.724C56 53.44 56 51.766 56 48.412V22M8 22V19.6C8 16.24 8 14.56 8.654 13.276C9.23 12.145 10.145 11.23 11.276 10.654C12.56 10 14.24 10 17.6 10H20M56 22V19.591C56 16.237 56 14.557 55.346 13.276C54.7698 12.1467 53.8509 11.2289 52.721 10.654C51.44 10 49.76 10 46.4 10H44M20 10H44M20 10V4M44 10V4M31.25 46C31.4489 46 31.6397 45.921 31.7803 45.7803C31.921 45.6397 32 45.4489 32 45.25V34.75C32 34.5511 31.921 34.3603 31.7803 34.2197C31.6397 34.079 31.4489 34 31.25 34H20.75C20.5511 34 20.3603 34.079 20.2197 34.2197C20.079 34.3603 20 34.5511 20 34.75V45.25C20 45.664 20.336 46 20.75 46H31.25Z" stroke="#1B1B1B" stroke-width="5" stroke-linecap="round" stroke-linejoin="round"/>
</g>
</svg>
