<svg width="32" height="32" viewBox="0 0 32 32" fill="none" xmlns="http://www.w3.org/2000/svg">
<g id="Type=Calendar, Size=Small">
<path id="Vector" d="M4 11H28M4 11V24.2C4 25.88 4 26.72 4.327 27.362C4.61462 27.9265 5.07354 28.3854 5.638 28.673C6.2785 29 7.1185 29 8.7955 29H23.2045C24.8815 29 25.72 29 26.3605 28.673C26.926 28.385 27.385 27.926 27.673 27.362C28 26.72 28 25.883 28 24.206V11M4 11V9.8C4 8.12 4 7.28 4.327 6.638C4.615 6.0725 5.0725 5.615 5.638 5.327C6.28 5 7.12 5 8.8 5H10M28 11V9.7955C28 8.1185 28 7.2785 27.673 6.638C27.3849 6.07337 26.9255 5.61445 26.3605 5.327C25.72 5 24.88 5 23.2 5H22M10 5H22M10 5V2M22 5V2M15.625 23C15.7245 23 15.8198 22.9605 15.8902 22.8902C15.9605 22.8198 16 22.7245 16 22.625V17.375C16 17.2755 15.9605 17.1802 15.8902 17.1098C15.8198 17.0395 15.7245 17 15.625 17H10.375C10.2755 17 10.1802 17.0395 10.1098 17.1098C10.0395 17.1802 10 17.2755 10 17.375V22.625C10 22.832 10.168 23 10.375 23H15.625Z" stroke="#1B1B1B" stroke-width="2.5" stroke-linecap="round" stroke-linejoin="round"/>
</g>
</svg>
