<svg width="116" height="116" viewBox="0 0 116 116" fill="none" xmlns="http://www.w3.org/2000/svg">
<g id="Type=Calendar, Size=Large">
<path id="Vector" d="M19.333 38.6667H96.6663M19.333 38.6667V81.2C19.333 86.6133 19.333 89.32 20.3867 91.3887C21.3134 93.2075 22.7922 94.6862 24.611 95.613C26.6748 96.6667 29.3815 96.6667 34.7852 96.6667H81.2142C86.6178 96.6667 89.3197 96.6667 91.3835 95.613C93.2057 94.685 94.6847 93.206 95.6127 91.3887C96.6663 89.32 96.6663 86.623 96.6663 81.2193V38.6667M19.333 38.6667V34.8C19.333 29.3867 19.333 26.68 20.3867 24.6113C21.3147 22.7892 22.7888 21.315 24.611 20.387C26.6797 19.3333 29.3863 19.3333 34.7997 19.3333H38.6663M96.6663 38.6667V34.7855C96.6663 29.3818 96.6663 26.6752 95.6127 24.6113C94.6844 22.792 93.2039 21.3132 91.3835 20.387C89.3197 19.3333 86.613 19.3333 81.1997 19.3333H77.333M38.6663 19.3333H77.333M38.6663 19.3333V9.66667M77.333 19.3333V9.66667M56.7913 77.3333C57.1118 77.3333 57.4192 77.206 57.6458 76.9794C57.8724 76.7528 57.9997 76.4455 57.9997 76.125V59.2083C57.9997 58.8879 57.8724 58.5805 57.6458 58.3539C57.4192 58.1273 57.1118 58 56.7913 58H39.8747C39.5542 58 39.2469 58.1273 39.0203 58.3539C38.7936 58.5805 38.6663 58.8879 38.6663 59.2083V76.125C38.6663 76.792 39.2077 77.3333 39.8747 77.3333H56.7913Z" stroke="#1B1B1B" stroke-width="6" stroke-linecap="round" stroke-linejoin="round"/>
</g>
</svg>
