<svg width="64" height="64" viewBox="0 0 64 64" fill="none" xmlns="http://www.w3.org/2000/svg">
<path d="M43.5734 24.8587C43.8295 24.6198 44.0361 24.3329 44.1814 24.0142C44.3267 23.6955 44.4078 23.3514 44.42 23.0013C44.4323 22.6513 44.3755 22.3023 44.2528 21.9743C44.1302 21.6462 43.9442 21.3455 43.7054 21.0893C43.4665 20.8332 43.1796 20.6266 42.8609 20.4813C42.5422 20.336 42.198 20.2549 41.848 20.2427C41.498 20.2304 41.149 20.2872 40.821 20.4099C40.4929 20.5325 40.1922 20.7185 39.936 20.9573L32.1334 28.232L24.8587 20.4267C24.3719 19.9281 23.7094 19.6399 23.0128 19.6237C22.3162 19.6074 21.641 19.8644 21.1315 20.3398C20.622 20.8151 20.3188 21.4709 20.2868 22.1669C20.2547 22.863 20.4964 23.5439 20.96 24.064L28.2347 31.8667L20.4294 39.1413C20.1641 39.3778 19.9488 39.6648 19.7961 39.9856C19.6434 40.3063 19.5563 40.6544 19.5399 41.0093C19.5236 41.3642 19.5783 41.7188 19.7009 42.0523C19.8236 42.3857 20.0116 42.6913 20.2539 42.9511C20.4963 43.2109 20.7881 43.4196 21.1123 43.565C21.4365 43.7104 21.7864 43.7896 22.1416 43.7979C22.4968 43.8062 22.8501 43.7434 23.1806 43.6133C23.5112 43.4831 23.8125 43.2882 24.0667 43.04L31.8694 35.768L39.144 43.5707C39.3789 43.8408 39.6658 44.0608 39.9875 44.2177C40.3093 44.3746 40.6593 44.4651 41.0168 44.4838C41.3743 44.5026 41.7318 44.4491 42.0682 44.3267C42.4046 44.2043 42.7129 44.0154 42.9747 43.7713C43.2365 43.5272 43.4465 43.2329 43.5922 42.9059C43.7378 42.579 43.8162 42.226 43.8225 41.8681C43.8289 41.5102 43.7631 41.1547 43.6291 40.8227C43.4951 40.4908 43.2957 40.1892 43.0427 39.936L35.7707 32.1333L43.5734 24.8587Z" fill="#1B1B1B"/>
<path fill-rule="evenodd" clip-rule="evenodd" d="M2.6665 32C2.6665 15.8 15.7998 2.66663 31.9998 2.66663C48.1998 2.66663 61.3332 15.8 61.3332 32C61.3332 48.2 48.1998 61.3333 31.9998 61.3333C15.7998 61.3333 2.6665 48.2 2.6665 32ZM31.9998 56C28.8481 56 25.7272 55.3792 22.8154 54.1731C19.9036 52.967 17.2579 51.1991 15.0293 48.9705C12.8007 46.7419 11.0328 44.0962 9.82673 41.1844C8.62062 38.2725 7.99984 35.1517 7.99984 32C7.99984 28.8482 8.62062 25.7274 9.82673 22.8156C11.0328 19.9037 12.8007 17.258 15.0293 15.0294C17.2579 12.8008 19.9036 11.033 22.8154 9.82685C25.7272 8.62074 28.8481 7.99996 31.9998 7.99996C38.365 7.99996 44.4695 10.5285 48.9704 15.0294C53.4713 19.5303 55.9998 25.6348 55.9998 32C55.9998 38.3652 53.4713 44.4696 48.9704 48.9705C44.4695 53.4714 38.365 56 31.9998 56Z" fill="#1B1B1B"/>
</svg>
