<svg width="32" height="32" viewBox="0 0 32 32" fill="none" xmlns="http://www.w3.org/2000/svg">
<path d="M21.7867 12.4294C21.9148 12.31 22.0181 12.1665 22.0907 12.0072C22.1633 11.8478 22.2039 11.6757 22.21 11.5007C22.2161 11.3257 22.1877 11.1512 22.1264 10.9872C22.0651 10.8232 21.9721 10.6728 21.8527 10.5447C21.7333 10.4167 21.5898 10.3133 21.4305 10.2407C21.2711 10.1681 21.099 10.1275 20.924 10.1214C20.749 10.1153 20.5745 10.1437 20.4105 10.205C20.2464 10.2663 20.0961 10.3593 19.968 10.4787L16.0667 14.1161L12.4293 10.2134C12.186 9.96413 11.8547 9.82001 11.5064 9.81189C11.1581 9.80376 10.8205 9.93228 10.5658 10.1699C10.311 10.4076 10.1594 10.7355 10.1434 11.0835C10.1274 11.4315 10.2482 11.772 10.48 12.0321L14.1173 15.9334L10.2147 19.5707C10.0821 19.6889 9.97442 19.8324 9.89805 19.9928C9.82169 20.1532 9.77814 20.3273 9.76997 20.5047C9.7618 20.6822 9.78917 20.8595 9.85047 21.0262C9.91178 21.1929 10.0058 21.3457 10.127 21.4756C10.2482 21.6055 10.3941 21.7099 10.5562 21.7826C10.7182 21.8553 10.8932 21.8949 11.0708 21.899C11.2484 21.9032 11.425 21.8718 11.5903 21.8067C11.7556 21.7416 11.9062 21.6442 12.0333 21.5201L15.9347 17.8841L19.572 21.7854C19.6895 21.9205 19.8329 22.0305 19.9938 22.1089C20.1546 22.1874 20.3297 22.2326 20.5084 22.242C20.6871 22.2513 20.8659 22.2246 21.0341 22.1634C21.2023 22.1022 21.3564 22.0078 21.4873 21.8857C21.6183 21.7637 21.7233 21.6165 21.7961 21.453C21.8689 21.2895 21.9081 21.1131 21.9113 20.9341C21.9144 20.7552 21.8815 20.5774 21.8146 20.4114C21.7476 20.2455 21.6479 20.0947 21.5213 19.9681L17.8853 16.0667L21.7867 12.4294Z" fill="#1B1B1B"/>
<path fill-rule="evenodd" clip-rule="evenodd" d="M1.3335 16C1.3335 7.90004 7.90016 1.33337 16.0002 1.33337C24.1002 1.33337 30.6668 7.90004 30.6668 16C30.6668 24.1 24.1002 30.6667 16.0002 30.6667C7.90016 30.6667 1.3335 24.1 1.3335 16ZM16.0002 28C14.4243 28 12.8639 27.6897 11.408 27.0866C9.95205 26.4835 8.62918 25.5996 7.51488 24.4853C6.40058 23.371 5.51666 22.0481 4.91361 20.5922C4.31055 19.1363 4.00016 17.5759 4.00016 16C4.00016 14.4242 4.31055 12.8637 4.91361 11.4078C5.51666 9.95193 6.40058 8.62906 7.51488 7.51476C8.62918 6.40046 9.95205 5.51654 11.408 4.91349C12.8639 4.31043 14.4243 4.00004 16.0002 4.00004C19.1828 4.00004 22.235 5.26432 24.4854 7.51476C26.7359 9.7652 28.0002 12.8174 28.0002 16C28.0002 19.1826 26.7359 22.2349 24.4854 24.4853C22.235 26.7358 19.1828 28 16.0002 28Z" fill="#1B1B1B"/>
</svg>
