<svg width="60" height="60" viewBox="0 0 60 60" fill="none" xmlns="http://www.w3.org/2000/svg">
<g id="Group">
<path id="Vector" d="M41.4778 22.8588C41.7339 22.62 41.9406 22.333 42.0858 22.0143C42.2311 21.6957 42.3122 21.3515 42.3244 21.0015C42.3367 20.6515 42.2799 20.3025 42.1573 19.9744C42.0346 19.6463 41.8486 19.3456 41.6098 19.0895C41.3709 18.8333 41.084 18.6267 40.7653 18.4814C40.4466 18.3361 40.1025 18.2551 39.7524 18.2428C39.4024 18.2306 39.0534 18.2874 38.7254 18.41C38.3973 18.5326 38.0966 18.7186 37.8404 18.9575L30.0378 26.2321L22.7631 18.4268C22.2764 17.9283 21.6138 17.64 20.9172 17.6238C20.2207 17.6075 19.5454 17.8646 19.0359 18.3399C18.5265 18.8152 18.2233 19.471 18.1912 20.1671C18.1592 20.8631 18.4008 21.544 18.8644 22.0641L26.1391 29.8668L18.3338 37.1415C18.0686 37.3779 17.8533 37.6649 17.7005 37.9857C17.5478 38.3065 17.4607 38.6545 17.4444 39.0094C17.428 39.3643 17.4828 39.7189 17.6054 40.0524C17.728 40.3858 17.916 40.6914 18.1584 40.9512C18.4007 41.211 18.6926 41.4197 19.0167 41.5651C19.3409 41.7106 19.6908 41.7897 20.046 41.798C20.4012 41.8063 20.7545 41.7435 21.0851 41.6134C21.4157 41.4832 21.7169 41.2883 21.9711 41.0401L29.7738 33.7681L37.0484 41.5708C37.2833 41.8409 37.5702 42.061 37.8919 42.2179C38.2137 42.3747 38.5637 42.4652 38.9212 42.484C39.2787 42.5027 39.6362 42.4492 39.9726 42.3268C40.309 42.2044 40.6173 42.0155 40.8791 41.7714C41.1409 41.5274 41.3509 41.233 41.4966 40.9061C41.6422 40.5791 41.7206 40.2261 41.7269 39.8682C41.7333 39.5103 41.6675 39.1548 41.5335 38.8229C41.3996 38.4909 41.2001 38.1894 40.9471 37.9361L33.6751 30.1335L41.4778 22.8588Z" fill="#C52323"/>
<path id="Vector_2" fill-rule="evenodd" clip-rule="evenodd" d="M0.571167 29.9993C0.571167 13.7993 13.7045 0.666016 29.9045 0.666016C46.1045 0.666016 59.2378 13.7993 59.2378 29.9993C59.2378 46.1993 46.1045 59.3327 29.9045 59.3327C13.7045 59.3327 0.571167 46.1993 0.571167 29.9993ZM29.9045 53.9994C26.7528 53.9994 23.6319 53.3786 20.7201 52.1725C17.8083 50.9663 15.1625 49.1985 12.9339 46.9699C10.7053 44.7413 8.9375 42.0956 7.73139 39.1838C6.52528 36.2719 5.9045 33.1511 5.9045 29.9993C5.9045 26.8476 6.52528 23.7268 7.73139 20.8149C8.9375 17.9031 10.7053 15.2574 12.9339 13.0288C15.1625 10.8002 17.8083 9.03235 20.7201 7.82624C23.6319 6.62013 26.7528 5.99935 29.9045 5.99935C36.2697 5.99935 42.3742 8.52791 46.8751 13.0288C51.3759 17.5297 53.9045 23.6342 53.9045 29.9993C53.9045 36.3645 51.3759 42.469 46.8751 46.9699C42.3742 51.4708 36.2697 53.9994 29.9045 53.9994Z" fill="#C52323"/>
</g>
</svg>
