<svg width="116" height="116" viewBox="0 0 116 116" fill="none" xmlns="http://www.w3.org/2000/svg">
<g id="Type=Dialogue, Size=Large">
<path id="Vector" d="M45.1334 77.285C51.4878 76.9252 57.5474 74.4851 62.3777 70.3407C67.2081 66.1964 70.5409 60.5781 71.8623 54.3522C73.1837 48.1263 72.4202 41.6386 69.6896 35.8895C66.959 30.1405 62.413 25.4494 56.7525 22.5396C51.0921 19.6298 44.6315 18.663 38.3672 19.7882C32.1029 20.9134 26.3827 24.0681 22.0887 28.7659C17.7947 33.4638 15.1654 39.4437 14.6063 45.7837C14.0472 52.1236 15.5892 58.4715 18.9947 63.8483L16.9454 69.9963V70.006C16.1575 72.3598 15.766 73.5343 16.0415 74.3222C16.2832 75.0037 16.8294 75.545 17.5109 75.7867C18.2939 76.067 19.4635 75.6755 21.8029 74.8973L21.8367 74.8877L27.9847 72.8383C33.0934 76.0818 39.0923 77.6373 45.1334 77.285ZM45.1334 77.285C46.5815 81.3996 48.9388 85.1347 52.0298 88.2124C55.1207 91.2902 58.8659 93.6315 62.9866 95.062C67.1073 96.4926 71.4976 96.9756 75.8308 96.4752C80.1639 95.9748 84.3285 94.5038 88.0147 92.1717L94.1627 94.221H94.1772C96.531 95.0088 97.7055 95.4003 98.4934 95.12C98.8299 94.9991 99.1353 94.805 99.3877 94.5517C99.6402 94.2985 99.8332 93.9924 99.953 93.6555C100.233 92.8725 99.8419 91.6932 99.054 89.3297L97.0047 83.1817L97.691 82.0458C100.21 77.6348 101.525 72.6397 101.507 67.5604C101.488 62.481 100.136 57.4957 97.585 53.1033C95.0342 48.7108 91.3744 45.0654 86.9721 42.5318C82.5697 39.9983 77.5791 38.6654 72.4997 38.6667L71.4122 38.686L70.866 38.715" stroke="#1B1B1B" stroke-width="6" stroke-linecap="round" stroke-linejoin="round"/>
</g>
</svg>
