<svg width="62" height="62" viewBox="0 0 62 62" fill="none" xmlns="http://www.w3.org/2000/svg">
<g id="Type=Dialogue, Size=Medium">
<path id="Vector" d="M24.1232 41.3075C27.5195 41.1152 30.7583 39.811 33.34 37.5959C35.9218 35.3808 37.7031 32.3779 38.4094 29.0503C39.1156 25.7227 38.7075 22.2551 37.2481 19.1823C35.7887 16.1096 33.3589 13.6022 30.3334 12.047C27.308 10.4918 23.855 9.97503 20.5068 10.5764C17.1586 11.1778 14.1013 12.864 11.8062 15.3749C9.51117 17.8858 8.10587 21.082 7.80702 24.4706C7.50817 27.8592 8.33238 31.252 10.1525 34.1258L9.05721 37.4118V37.417C8.63613 38.6751 8.42688 39.3028 8.57413 39.7239C8.7033 40.0882 8.99521 40.3775 9.35946 40.5067C9.77796 40.6565 10.4031 40.4472 11.6535 40.0313L11.6715 40.0262L14.9575 38.9308C17.688 40.6644 20.8944 41.4958 24.1232 41.3075ZM24.1232 41.3075C24.8972 43.5067 26.1571 45.503 27.8092 47.148C29.4613 48.793 31.463 50.0444 33.6655 50.809C35.8679 51.5736 38.2144 51.8318 40.5304 51.5643C42.8464 51.2969 45.0723 50.5106 47.0425 49.2642L50.3285 50.3595H50.3363C51.5944 50.7806 52.2221 50.9898 52.6432 50.84C52.8231 50.7754 52.9863 50.6716 53.1212 50.5363C53.2562 50.4009 53.3593 50.2373 53.4234 50.0572C53.5732 49.6387 53.364 49.0084 52.9429 47.7452L51.8475 44.4592L52.2144 43.8521C53.5605 41.4945 54.2638 38.8247 54.2538 36.1098C54.2439 33.395 53.521 30.7304 52.1577 28.3828C50.7943 26.0351 48.8383 24.0867 46.4853 22.7325C44.1323 21.3784 41.4649 20.666 38.75 20.6667L38.1688 20.677L37.8769 20.6925" stroke="#1B1B1B" stroke-width="4" stroke-linecap="round" stroke-linejoin="round"/>
</g>
</svg>
