<svg width="32" height="32" viewBox="0 0 32 32" fill="none" xmlns="http://www.w3.org/2000/svg">
<g id="Type=Dialogue, Size=Small">
<path id="Vector" d="M12.4503 21.32C14.2032 21.2208 15.8748 20.5476 17.2073 19.4043C18.5398 18.2611 19.4592 16.7112 19.8237 14.9937C20.1883 13.2762 19.9776 11.4865 19.2244 9.90056C18.4711 8.31462 17.217 7.02051 15.6555 6.21781C14.094 5.41511 12.3118 5.1484 10.5837 5.4588C8.85563 5.7692 7.27765 6.63948 6.0931 7.93543C4.90855 9.23138 4.18323 10.881 4.02899 12.63C3.87474 14.3789 4.30014 16.1301 5.23958 17.6133L4.67425 19.3093V19.312C4.45692 19.9613 4.34892 20.2853 4.42492 20.5027C4.49158 20.6907 4.64225 20.84 4.83025 20.9067C5.04625 20.984 5.36892 20.876 6.01425 20.6613L6.02358 20.6587L7.71958 20.0933C9.12887 20.9881 10.7838 21.4172 12.4503 21.32ZM12.4503 21.32C12.8497 22.4551 13.5 23.4854 14.3527 24.3345C15.2054 25.1835 16.2385 25.8294 17.3753 26.224C18.512 26.6186 19.7231 26.7519 20.9185 26.6138C22.1139 26.4758 23.2627 26.07 24.2796 25.4267L25.9756 25.992H25.9796C26.6289 26.2093 26.9529 26.3173 27.1703 26.24C27.2631 26.2066 27.3473 26.1531 27.417 26.0832C27.4866 26.0134 27.5399 25.9289 27.5729 25.836C27.6503 25.62 27.5422 25.2947 27.3249 24.6427L26.7596 22.9467L26.9489 22.6333C27.6437 21.4165 28.0067 20.0385 28.0015 18.6373C27.9964 17.2361 27.6233 15.8609 26.9197 14.6492C26.216 13.4375 25.2064 12.4318 23.992 11.7329C22.7775 11.034 21.4008 10.6663 19.9996 10.6667L19.6996 10.672L19.5489 10.68" stroke="#1B1B1B" stroke-width="2" stroke-linecap="round" stroke-linejoin="round"/>
</g>
</svg>
