<svg width="32" height="25" viewBox="0 0 32 25" fill="none" xmlns="http://www.w3.org/2000/svg">
<g id="Group">
<path id="Vector" fill-rule="evenodd" clip-rule="evenodd" d="M21.3332 12.7501C21.3332 14.1646 20.7713 15.5211 19.7711 16.5213C18.7709 17.5215 17.4143 18.0834 15.9998 18.0834C14.5853 18.0834 13.2288 17.5215 12.2286 16.5213C11.2284 15.5211 10.6665 14.1646 10.6665 12.7501C10.6665 11.3356 11.2284 9.97904 12.2286 8.97885C13.2288 7.97865 14.5853 7.41675 15.9998 7.41675C17.4143 7.41675 18.7709 7.97865 19.7711 8.97885C20.7713 9.97904 21.3332 11.3356 21.3332 12.7501ZM18.6665 12.7501C18.6665 13.4573 18.3856 14.1356 17.8855 14.6357C17.3854 15.1358 16.7071 15.4167 15.9998 15.4167C15.2926 15.4167 14.6143 15.1358 14.1142 14.6357C13.6141 14.1356 13.3332 13.4573 13.3332 12.7501C13.3332 12.0428 13.6141 11.3646 14.1142 10.8645C14.6143 10.3644 15.2926 10.0834 15.9998 10.0834C16.7071 10.0834 17.3854 10.3644 17.8855 10.8645C18.3856 11.3646 18.6665 12.0428 18.6665 12.7501Z" fill="black"/>
<path id="Vector_2" fill-rule="evenodd" clip-rule="evenodd" d="M15.9999 0.75C23.4546 0.75 29.7199 5.84867 31.4959 12.75C29.7199 19.6513 23.4559 24.75 15.9999 24.75C8.54391 24.75 2.27991 19.6513 0.503906 12.75C2.27991 5.84867 8.54391 0.75 15.9999 0.75ZM15.9999 22.0833C10.0319 22.0833 4.97457 18.1607 3.27591 12.75C4.97457 7.33933 10.0319 3.41667 15.9999 3.41667C21.9679 3.41667 27.0252 7.33933 28.7239 12.75C27.0252 18.1607 21.9679 22.0833 15.9999 22.0833Z" fill="black"/>
</g>
</svg>
