<svg width="64" height="64" viewBox="0 0 64 64" fill="none" xmlns="http://www.w3.org/2000/svg">
<path d="M8 29.3333V51.7333C8 53.2267 8 53.9733 8.29067 54.5413C8.54587 55.0441 8.95385 55.453 9.456 55.7093C10.0267 56 10.7707 56 12.2613 56H41.0693C42.5627 56 43.3093 56 43.8773 55.7093C44.3793 55.454 44.7873 55.046 45.0427 54.544C45.3333 53.9733 45.3333 53.2267 45.3333 51.7333V40V33.6C45.3333 32.1067 45.3333 31.36 45.0427 30.7893C44.7893 30.2877 44.3831 29.8797 43.8827 29.624C43.312 29.3333 42.56 29.3333 41.0667 29.3333H26.6667M8 29.3333H26.6667M8 29.3333V28.2667C8 26.7733 8 26.0267 8.29067 25.456C8.54633 24.9543 8.95426 24.5463 9.456 24.2907C10.0267 24 10.7733 24 12.2667 24H18.6667M26.6667 29.3333L23.8 25.648C23.3307 25.0427 23.0933 24.7413 22.8 24.5227C22.5403 24.3298 22.2475 24.1861 21.936 24.0987C21.584 24 21.1973 24 20.432 24H18.6667M18.6667 24V13.3333M18.6667 13.3333H51.7333C53.2267 13.3333 53.9787 13.3333 54.5493 13.624C55.0498 13.8797 55.456 14.2877 55.7093 14.7893C56 15.36 56 16.1067 56 17.6V35.7333C56 37.2267 56 37.9733 55.7067 38.544C55.4528 39.0453 55.0468 39.4532 54.5467 39.7093C53.976 40 53.2293 40 51.7387 40H45.3387M18.6667 13.3333V12.2667C18.6667 10.7733 18.6667 10.0267 18.9573 9.456C19.213 8.95426 19.6209 8.54633 20.1227 8.29067C20.6933 8 21.44 8 22.9333 8H31.0987C31.864 8 32.2453 8 32.5973 8.09867C32.9106 8.18577 33.2052 8.32947 33.4667 8.52267C33.76 8.73867 33.9973 9.04267 34.4667 9.648L37.3333 13.3333" stroke="black" stroke-width="4" stroke-linecap="round" stroke-linejoin="round"/>
</svg>
