<svg width="64" height="64" viewBox="0 0 64 64" fill="none" xmlns="http://www.w3.org/2000/svg">
<path d="M54.2669 23.7947L53.2909 23.2507C52.432 22.8084 51.7094 22.1411 51.2002 21.3201C51.1549 21.2481 51.1122 21.1707 51.0269 21.0214C50.4523 20.0984 50.1732 19.022 50.2269 17.9361L50.2429 16.8027C50.2749 14.9894 50.2909 14.0774 50.0349 13.2614C49.8085 12.5353 49.4294 11.8661 48.9229 11.2987C48.3522 10.6587 47.5602 10.2001 45.9735 9.28805L44.6562 8.52805C43.0775 7.61872 42.2855 7.16272 41.4455 6.98939C40.7034 6.83573 39.937 6.8421 39.1975 7.00805C38.3629 7.19472 37.5815 7.66405 36.0215 8.59738L36.0135 8.60272L35.0695 9.16539C34.9202 9.25605 34.8429 9.29872 34.7682 9.34139C34.0269 9.75472 33.2002 9.98138 32.3495 10.0081C32.2642 10.0134 32.1762 10.0134 32.0029 10.0134L31.6562 10.0107C30.8052 9.98392 29.9731 9.75348 29.2295 9.33872C29.1549 9.29872 29.0829 9.25339 28.9335 9.16272L27.9815 8.59205C26.4109 7.64805 25.6242 7.17872 24.7842 6.98939C24.042 6.82308 23.2727 6.81762 22.5282 6.97338C21.6855 7.14938 20.8962 7.60805 19.3149 8.52539L19.3069 8.52805L18.0055 9.28272L17.9922 9.29338C16.4242 10.2001 15.6375 10.6587 15.0722 11.2961C14.5684 11.8624 14.1911 12.5297 13.9655 13.2534C13.7122 14.0721 13.7255 14.9841 13.7575 16.8081L13.7762 17.9387C13.7762 18.1121 13.7842 18.1974 13.7815 18.2801C13.7675 19.2489 13.49 20.1956 12.9789 21.0187C12.8909 21.1681 12.8509 21.2427 12.8055 21.3121C12.3559 22.0378 11.7386 22.6451 11.0055 23.0827L10.7069 23.2507L9.74421 23.7841C8.13888 24.6721 7.33621 25.1174 6.75488 25.7521C6.23803 26.3116 5.84703 26.9754 5.60821 27.6987C5.34155 28.5174 5.34155 29.4321 5.34421 31.2667L5.34955 32.7681C5.35221 34.5894 5.35755 35.4987 5.62688 36.3121C5.86471 37.0309 6.25287 37.6909 6.76555 38.2481C7.34688 38.8774 8.14155 39.3201 9.73355 40.2054L10.6882 40.7361C10.8509 40.8267 10.9335 40.8694 11.0109 40.9174C11.8465 41.4183 12.529 42.1386 12.9842 43.0001L13.1629 43.3201C13.6133 44.1705 13.8252 45.127 13.7762 46.0881L13.7575 47.1734C13.7255 49.0027 13.7122 49.9201 13.9682 50.7387C14.1949 51.4641 14.5735 52.1334 15.0802 52.7014C15.6509 53.3414 16.4455 53.7974 18.0295 54.7121L19.3469 55.4721C20.9282 56.3814 21.7175 56.8374 22.5575 57.0107C23.2997 57.1643 24.0661 57.1579 24.8055 56.9921C25.6429 56.8054 26.4242 56.3361 27.9895 55.3974L28.9335 54.8321C29.7466 54.3085 30.6869 54.0163 31.6535 53.9867H32.3469C33.1949 54.0134 34.0269 54.2454 34.7735 54.6587L35.0189 54.8054L36.0215 55.4081C37.5949 56.3521 38.3789 56.8214 39.2189 57.0081C39.9608 57.176 40.73 57.1832 41.4749 57.0294C42.3149 56.8534 43.1096 56.3921 44.6909 55.4747L46.0109 54.7094C47.5789 53.7974 48.3656 53.3414 48.9309 52.7041C49.4376 52.1361 49.8109 51.4694 50.0375 50.7467C50.2909 49.9334 50.2775 49.0294 50.2455 47.2321L50.2242 46.0587C50.1712 44.9746 50.4503 43.9001 51.0242 42.9787L51.1975 42.6854C51.6472 41.9596 52.2645 41.3524 52.9975 40.9147L53.2909 40.7521L53.2962 40.7494L54.2589 40.2161C55.8642 39.3254 56.6669 38.8827 57.2509 38.2481C57.7682 37.6881 58.1576 37.0214 58.3949 36.3014C58.6616 35.4881 58.6615 34.5761 58.6562 32.7627L58.6509 31.2321C58.6482 29.4107 58.6456 28.4987 58.3762 27.6854C58.1371 26.9673 57.7481 26.3083 57.2349 25.7521C56.6562 25.1227 55.8615 24.6801 54.2722 23.7974L54.2669 23.7947Z" stroke="black" stroke-width="4" stroke-linecap="round" stroke-linejoin="round"/>
<path d="M21.334 32C21.334 34.829 22.4578 37.5421 24.4582 39.5425C26.4586 41.5429 29.1717 42.6667 32.0007 42.6667C34.8296 42.6667 37.5427 41.5429 39.5431 39.5425C41.5435 37.5421 42.6673 34.829 42.6673 32C42.6673 29.1711 41.5435 26.458 39.5431 24.4576C37.5427 22.4572 34.8296 21.3334 32.0007 21.3334C29.1717 21.3334 26.4586 22.4572 24.4582 24.4576C22.4578 26.458 21.334 29.1711 21.334 32Z" stroke="black" stroke-width="4" stroke-linecap="round" stroke-linejoin="round"/>
</svg>
