<svg width="32" height="32" viewBox="0 0 32 32" fill="none" xmlns="http://www.w3.org/2000/svg">
<path d="M27.1334 11.8973L26.6454 11.6253C26.216 11.4041 25.8547 11.0705 25.6001 10.66C25.5774 10.624 25.5561 10.5853 25.5134 10.5106C25.2261 10.0491 25.0866 9.51092 25.1134 8.96796L25.1214 8.4013C25.1374 7.49463 25.1454 7.03863 25.0174 6.63063C24.9043 6.26759 24.7147 5.93298 24.4614 5.6493C24.1761 5.3293 23.7801 5.09996 22.9868 4.64396L22.3281 4.26396C21.5388 3.8093 21.1428 3.5813 20.7228 3.49463C20.3517 3.41781 19.9685 3.42099 19.5988 3.50396C19.1814 3.5973 18.7908 3.83196 18.0108 4.29863L18.0068 4.3013L17.5348 4.58263C17.4601 4.62796 17.4214 4.6493 17.3841 4.67063C17.0134 4.8773 16.6001 4.99063 16.1748 5.00396C16.1321 5.00663 16.0881 5.00663 16.0014 5.00663L15.8281 5.0053C15.4026 4.9919 14.9865 4.87668 14.6148 4.6693C14.5774 4.6493 14.5414 4.62663 14.4668 4.5813L13.9908 4.29596C13.2054 3.82396 12.8121 3.5893 12.3921 3.49463C12.021 3.41148 11.6364 3.40875 11.2641 3.48663C10.8428 3.57463 10.4481 3.80396 9.65744 4.26263L9.65344 4.26396L9.00277 4.6413L8.99611 4.64663C8.21211 5.09996 7.81877 5.3293 7.53611 5.64796C7.28421 5.93116 7.09557 6.26479 6.98277 6.62663C6.85611 7.03596 6.86277 7.49196 6.87877 8.40396L6.88811 8.9693C6.88811 9.05597 6.89211 9.09863 6.89077 9.13997C6.88373 9.62437 6.745 10.0977 6.48944 10.5093C6.44544 10.584 6.42544 10.6213 6.40277 10.656C6.17796 11.0189 5.86931 11.3225 5.50277 11.5413L5.35344 11.6253L4.87211 11.892C4.06944 12.336 3.66811 12.5586 3.37744 12.876C3.11901 13.1557 2.92352 13.4876 2.80411 13.8493C2.67077 14.2586 2.67077 14.716 2.67211 15.6333L2.67477 16.384C2.67611 17.2946 2.67877 17.7493 2.81344 18.156C2.93235 18.5154 3.12643 18.8454 3.38277 19.124C3.67344 19.4386 4.07077 19.66 4.86677 20.1026L5.34411 20.368C5.42544 20.4133 5.46677 20.4346 5.50544 20.4586C5.92327 20.7091 6.26451 21.0692 6.49211 21.5L6.58144 21.66C6.80666 22.0852 6.91262 22.5634 6.88811 23.044L6.87877 23.5866C6.86277 24.5013 6.85611 24.96 6.98411 25.3693C7.09744 25.732 7.28677 26.0666 7.54011 26.3506C7.82544 26.6706 8.22277 26.8986 9.01477 27.356L9.67344 27.736C10.4641 28.1906 10.8588 28.4186 11.2788 28.5053C11.6498 28.5821 12.033 28.5789 12.4028 28.496C12.8214 28.4026 13.2121 28.168 13.9948 27.6986L14.4668 27.416C14.8733 27.1542 15.3435 27.0081 15.8268 26.9933H16.1734C16.5974 27.0066 17.0134 27.1226 17.3868 27.3293L17.5094 27.4026L18.0108 27.704C18.7974 28.176 19.1894 28.4106 19.6094 28.504C19.9804 28.5879 20.365 28.5916 20.7374 28.5146C21.1574 28.4266 21.5548 28.196 22.3454 27.7373L23.0054 27.3546C23.7894 26.8986 24.1828 26.6706 24.4654 26.352C24.7188 26.068 24.9054 25.7346 25.0188 25.3733C25.1454 24.9666 25.1388 24.5146 25.1228 23.616L25.1121 23.0293C25.0856 22.4872 25.2252 21.95 25.5121 21.4893L25.5988 21.3426C25.8236 20.9797 26.1322 20.6761 26.4988 20.4573L26.6454 20.376L26.6481 20.3746L27.1294 20.108C27.9321 19.6626 28.3334 19.4413 28.6254 19.124C28.8841 18.844 29.0788 18.5106 29.1974 18.1506C29.3308 17.744 29.3308 17.288 29.3281 16.3813L29.3254 15.616C29.3241 14.7053 29.3228 14.2493 29.1881 13.8426C29.0686 13.4836 28.874 13.1541 28.6174 12.876C28.3281 12.5613 27.9308 12.34 27.1361 11.8986L27.1334 11.8973Z" stroke="black" stroke-width="2" stroke-linecap="round" stroke-linejoin="round"/>
<path d="M10.667 16C10.667 17.4144 11.2289 18.771 12.2291 19.7712C13.2293 20.7714 14.5858 21.3333 16.0003 21.3333C17.4148 21.3333 18.7714 20.7714 19.7716 19.7712C20.7718 18.771 21.3337 17.4144 21.3337 16C21.3337 14.5855 20.7718 13.2289 19.7716 12.2287C18.7714 11.2285 17.4148 10.6666 16.0003 10.6666C14.5858 10.6666 13.2293 11.2285 12.2291 12.2287C11.2289 13.2289 10.667 14.5855 10.667 16Z" stroke="black" stroke-width="2" stroke-linecap="round" stroke-linejoin="round"/>
</svg>
