<svg width="116" height="116" viewBox="0 0 116 116" fill="none" xmlns="http://www.w3.org/2000/svg">
<path d="M98.3587 43.1279L96.5897 42.1419C95.033 41.3402 93.7232 40.1307 92.8004 38.6426C92.7182 38.5121 92.6409 38.3719 92.4862 38.1012C91.4447 36.4283 90.9388 34.4773 91.0362 32.5091L91.0652 30.4549C91.1232 27.1682 91.1522 25.5152 90.6882 24.0362C90.278 22.7202 89.5907 21.5072 88.6727 20.4789C87.6384 19.3189 86.2029 18.4876 83.327 16.8346L80.9394 15.4571C78.0781 13.8089 76.6425 12.9824 75.12 12.6682C73.7749 12.3897 72.3859 12.4013 71.0456 12.7021C69.5327 13.0404 68.1166 13.8911 65.2891 15.5827L65.2746 15.5924L63.5636 16.6122C63.2929 16.7766 63.1527 16.8539 63.0174 16.9312C61.6737 17.6804 60.1754 18.0912 58.6335 18.1396C58.4789 18.1492 58.3194 18.1492 58.0052 18.1492L57.3769 18.1444C55.8345 18.0958 54.3262 17.6781 52.9786 16.9264C52.8432 16.8539 52.7127 16.7717 52.4421 16.6074L50.7166 15.5731C47.8697 13.8621 46.4439 13.0114 44.9214 12.6682C43.5761 12.3668 42.1818 12.3569 40.8324 12.6392C39.305 12.9582 37.8744 13.7896 35.0082 15.4522L34.9937 15.4571L32.635 16.8249L32.6109 16.8442C29.7689 18.4876 28.3431 19.3189 27.3184 20.4741C26.4053 21.5006 25.7215 22.7101 25.3126 24.0217C24.8534 25.5056 24.8776 27.1586 24.9356 30.4646L24.9694 32.5139C24.9694 32.8281 24.9839 32.9827 24.9791 33.1326C24.9535 34.8885 24.4506 36.6045 23.5242 38.0964C23.3647 38.3671 23.2922 38.5024 23.2101 38.6281C22.3951 39.9435 21.2763 41.0442 19.9476 41.8374L19.4062 42.1419L17.6614 43.1086C14.7517 44.7181 13.2969 45.5252 12.2432 46.6756C11.3064 47.6898 10.5977 48.8929 10.1649 50.2039C9.68155 51.6877 9.68155 53.3456 9.68639 56.6709L9.69605 59.3921C9.70089 62.6932 9.71055 64.3414 10.1987 65.8156C10.6298 67.1185 11.3333 68.3147 12.2626 69.3246C13.3162 70.4652 14.7566 71.2676 17.6421 72.8722L19.3724 73.8341C19.6672 73.9984 19.8171 74.0757 19.9572 74.1627C21.4719 75.0707 22.7088 76.3762 23.5339 77.9376L23.8577 78.5176C24.6741 80.059 25.0583 81.7926 24.9694 83.5346L24.9356 85.5017C24.8776 88.8174 24.8534 90.4801 25.3174 91.9639C25.7282 93.2786 26.4146 94.4917 27.3329 95.5212C28.3672 96.6812 29.8076 97.5077 32.6786 99.1656L35.0662 100.543C37.9324 102.191 39.363 103.018 40.8855 103.332C42.2307 103.61 43.6197 103.599 44.96 103.298C46.4777 102.96 47.8939 102.109 50.7311 100.408L52.4421 99.3831C53.9158 98.4342 55.6201 97.9045 57.3721 97.8509H58.6287C60.1657 97.8992 61.6737 98.3197 63.0271 99.0689L63.4717 99.3347L65.2891 100.427C68.1407 102.138 69.5617 102.989 71.0842 103.327C72.4289 103.631 73.8231 103.645 75.1732 103.366C76.6957 103.047 78.1361 102.211 81.0022 100.548L83.3947 99.1607C86.2367 97.5077 87.6626 96.6812 88.6872 95.5261C89.6056 94.4966 90.2822 93.2882 90.693 91.9784C91.1522 90.5042 91.128 88.8657 91.07 85.6081L91.0314 83.4814C90.9354 81.5164 91.4412 79.5688 92.4814 77.8989L92.7955 77.3672C93.6105 76.0517 94.7293 74.9511 96.0581 74.1579L96.5897 73.8631L96.5994 73.8582L98.3442 72.8916C101.254 71.2772 102.709 70.4749 103.767 69.3246C104.705 68.3096 105.411 67.1012 105.841 65.7962C106.324 64.3221 106.324 62.6691 106.314 59.3824L106.305 56.6081C106.3 53.3069 106.295 51.6539 105.807 50.1797C105.374 48.8782 104.668 47.6838 103.738 46.6756C102.689 45.5349 101.249 44.7326 98.3684 43.1327L98.3587 43.1279Z" stroke="black" stroke-width="6" stroke-linecap="round" stroke-linejoin="round"/>
<path d="M38.667 58.0001C38.667 63.1276 40.7039 68.0451 44.3296 71.6708C47.9553 75.2965 52.8728 77.3334 58.0003 77.3334C63.1278 77.3334 68.0454 75.2965 71.6711 71.6708C75.2968 68.0451 77.3337 63.1276 77.3337 58.0001C77.3337 52.8726 75.2968 47.9551 71.6711 44.3293C68.0454 40.7036 63.1278 38.6667 58.0003 38.6667C52.8728 38.6667 47.9553 40.7036 44.3296 44.3293C40.7039 47.9551 38.667 52.8726 38.667 58.0001Z" stroke="black" stroke-width="6" stroke-linecap="round" stroke-linejoin="round"/>
</svg>
