<svg width="32" height="32" viewBox="0 0 32 32" fill="none" xmlns="http://www.w3.org/2000/svg">
<g id="Type=Group, Size=Small">
<path id="Vector" d="M22.6667 26.6667C22.6667 24.4573 19.6813 22.6667 16 22.6667C12.3187 22.6667 9.33333 24.4573 9.33333 26.6667M28 22.6667C28 21.0267 26.3547 19.6173 24 19M4 22.6667C4 21.0267 5.64533 19.6173 8 19M24 13.648C24.395 13.2988 24.7171 12.8749 24.9477 12.4008C25.1783 11.9267 25.3129 11.4116 25.3438 10.8853C25.3747 10.3589 25.3012 9.83169 25.1275 9.33386C24.9539 8.83603 24.6835 8.37744 24.332 7.98446C23.9805 7.59148 23.5548 7.27187 23.0794 7.04401C22.6039 6.81615 22.0881 6.68453 21.5616 6.65673C21.0351 6.62893 20.5082 6.7055 20.0114 6.88202C19.5146 7.05855 19.0576 7.33155 18.6667 7.68533M8 13.648C7.2164 12.9389 6.74528 11.9484 6.68956 10.8931C6.63384 9.8377 6.99804 8.80316 7.70261 8.01545C8.40718 7.22774 9.39486 6.75088 10.4499 6.68902C11.5049 6.62717 12.5415 6.98535 13.3333 7.68533M16 18.6667C15.4747 18.6667 14.9546 18.5632 14.4693 18.3622C13.984 18.1612 13.543 17.8665 13.1716 17.4951C12.8001 17.1237 12.5055 16.6827 12.3045 16.1974C12.1035 15.7121 12 15.192 12 14.6667C12 14.1414 12.1035 13.6212 12.3045 13.1359C12.5055 12.6506 12.8001 12.2097 13.1716 11.8382C13.543 11.4668 13.984 11.1722 14.4693 10.9711C14.9546 10.7701 15.4747 10.6667 16 10.6667C17.0609 10.6667 18.0783 11.0881 18.8284 11.8382C19.5786 12.5884 20 13.6058 20 14.6667C20 15.7275 19.5786 16.745 18.8284 17.4951C18.0783 18.2452 17.0609 18.6667 16 18.6667Z" stroke="#1B1B1B" stroke-width="2" stroke-linecap="round" stroke-linejoin="round"/>
</g>
</svg>
