<svg width="64" height="64" viewBox="0 0 64 64" fill="none" xmlns="http://www.w3.org/2000/svg">
<g id="Type=Group, Size=Medium">
<path id="Vector" d="M45.3333 53.3333C45.3333 48.9147 39.3627 45.3333 32 45.3333C24.6373 45.3333 18.6667 48.9147 18.6667 53.3333M56 45.3333C56 42.0533 52.7093 39.2347 48 38M8 45.3333C8 42.0533 11.2907 39.2347 16 38M48 27.296C48.79 26.5976 49.4342 25.7499 49.8954 24.8016C50.3567 23.8533 50.6259 22.8232 50.6876 21.7706C50.7493 20.7179 50.6023 19.6634 50.2551 18.6677C49.9078 17.6721 49.3671 16.7549 48.6641 15.9689C47.9611 15.183 47.1096 14.5437 46.1587 14.088C45.2078 13.6323 44.1761 13.3691 43.1231 13.3135C42.0701 13.2579 41.0165 13.411 40.0229 13.764C39.0292 14.1171 38.1152 14.6631 37.3333 15.3707M16 27.296C14.4328 25.8777 13.4906 23.8969 13.3791 21.7861C13.2677 19.6754 13.9961 17.6063 15.4052 16.0309C16.8144 14.4555 18.7897 13.5018 20.8998 13.378C23.0098 13.2543 25.0831 13.9707 26.6667 15.3707M32 37.3333C30.9494 37.3333 29.9091 37.1264 28.9385 36.7244C27.9679 36.3223 27.086 35.7331 26.3431 34.9902C25.6003 34.2473 25.011 33.3654 24.609 32.3948C24.2069 31.4242 24 30.3839 24 29.3333C24 28.2828 24.2069 27.2425 24.609 26.2719C25.011 25.3013 25.6003 24.4193 26.3431 23.6765C27.086 22.9336 27.9679 22.3443 28.9385 21.9423C29.9091 21.5403 30.9494 21.3333 32 21.3333C34.1217 21.3333 36.1566 22.1762 37.6569 23.6765C39.1571 25.1768 40 27.2116 40 29.3333C40 31.4551 39.1571 33.4899 37.6569 34.9902C36.1566 36.4905 34.1217 37.3333 32 37.3333Z" stroke="#1B1B1B" stroke-width="4" stroke-linecap="round" stroke-linejoin="round"/>
</g>
</svg>
