<svg width="116" height="116" viewBox="0 0 116 116" fill="none" xmlns="http://www.w3.org/2000/svg">
<g id="Type=Group, Size=Large">
<path id="Vector" d="M82.1667 96.6667C82.1667 88.6578 71.3448 82.1667 58 82.1667C44.6552 82.1667 33.8333 88.6578 33.8333 96.6667M101.5 82.1667C101.5 76.2217 95.5357 71.1128 87 68.875M14.5 82.1667C14.5 76.2217 20.4643 71.1128 29 68.875M87 49.474C88.4319 48.2081 89.5995 46.6716 90.4355 44.9529C91.2715 43.2342 91.7594 41.3671 91.8713 39.4591C91.9832 37.5511 91.7167 35.6399 91.0873 33.8352C90.4579 32.0306 89.4779 30.3682 88.2037 28.9436C86.9295 27.5191 85.3862 26.3605 83.6627 25.5345C81.9391 24.7085 80.0693 24.2314 78.1607 24.1306C76.2521 24.0299 74.3424 24.3074 72.5414 24.9473C70.7405 25.5872 69.0838 26.5769 67.6667 27.8593M29 49.474C26.1594 46.9034 24.4516 43.3131 24.2496 39.4874C24.0477 35.6616 25.3679 31.9115 27.922 29.056C30.476 26.2006 34.0564 24.4719 37.8808 24.2477C41.7053 24.0235 45.4631 25.3219 48.3333 27.8593M58 67.6667C56.0958 67.6667 54.2103 67.2916 52.4511 66.5629C50.6919 65.8342 49.0934 64.7662 47.747 63.4197C46.4005 62.0733 45.3324 60.4748 44.6037 58.7156C43.8751 56.9563 43.5 55.0708 43.5 53.1667C43.5 51.2625 43.8751 49.377 44.6037 47.6177C45.3324 45.8585 46.4005 44.2601 47.747 42.9136C49.0934 41.5672 50.6919 40.4991 52.4511 39.7704C54.2103 39.0417 56.0958 38.6667 58 38.6667C61.8456 38.6667 65.5338 40.1943 68.2531 42.9136C70.9723 45.6329 72.5 49.321 72.5 53.1667C72.5 57.0123 70.9723 60.7004 68.2531 63.4197C65.5338 66.139 61.8456 67.6667 58 67.6667Z" stroke="#1B1B1B" stroke-width="6" stroke-linecap="round" stroke-linejoin="round"/>
</g>
</svg>
