<svg width="64" height="64" viewBox="0 0 64 64" fill="none" xmlns="http://www.w3.org/2000/svg">
<path d="M25.3362 52.0027C25.3362 50.0987 25.3362 49.1494 25.2322 48.5174C24.9068 46.4827 24.8508 46.352 23.5522 44.752C23.1468 44.2534 21.6535 42.9174 18.6668 40.24C15.6478 37.5398 13.5199 33.9866 12.5644 30.0506C11.609 26.1145 11.8711 21.9812 13.3162 18.1974C14.7612 14.4136 17.321 11.1577 20.657 8.8605C23.9929 6.56334 27.9477 5.33317 31.998 5.33276C36.0484 5.33236 40.0034 6.56174 43.3398 8.85823C46.6761 11.1547 49.2366 14.4101 50.6824 18.1936C52.1282 21.9771 52.3912 26.1105 51.4365 30.0467C50.4819 33.9829 48.3546 37.5365 45.3362 40.2374C42.3468 42.9147 40.8535 44.2534 40.4508 44.7494C39.1522 46.3494 39.0962 46.48 38.7682 48.5147C38.6668 49.1467 38.6668 50.0987 38.6668 52H25.3335C25.3335 54.4934 25.3335 55.7387 25.8695 56.6667C26.2206 57.2747 26.7255 57.7796 27.3335 58.1307C28.2615 58.6667 29.5068 58.6667 32.0002 58.6667C34.4935 58.6667 35.7388 58.6667 36.6695 58.1334C37.2775 57.7823 37.7824 57.2774 38.1335 56.6694C38.6695 55.7414 38.6695 54.496 38.6695 52.0027" stroke="black" stroke-width="4"/>
<path d="M32.0005 45.3334V40M32.0005 40C32.9367 40 33.8563 39.7534 34.6671 39.2853C35.4778 38.8173 36.1511 38.1441 36.6192 37.3334M32.0005 40C31.0644 40 30.1447 39.7534 29.334 39.2853C28.5232 38.8173 27.85 38.1441 27.3818 37.3334" stroke="black" stroke-width="4" stroke-linecap="round"/>
</svg>
