<svg width="32" height="32" viewBox="0 0 32 32" fill="none" xmlns="http://www.w3.org/2000/svg">
<path d="M12.6681 26.0013C12.6681 25.0493 12.6681 24.5747 12.6161 24.2587C12.4534 23.2413 12.4254 23.176 11.7761 22.376C11.5734 22.1267 10.8267 21.4587 9.33341 20.12C7.82392 18.7699 6.75993 16.9933 6.28221 15.0253C5.80449 13.0573 5.93556 10.9906 6.65808 9.09868C7.3806 7.20678 8.66052 5.57883 10.3285 4.43025C11.9964 3.28167 13.9738 2.66658 15.999 2.66638C18.0242 2.66618 20.0017 3.28087 21.6699 4.42912C23.3381 5.57736 24.6183 7.20505 25.3412 9.09681C26.0641 10.9886 26.1956 13.0552 25.7183 15.0233C25.2409 16.9915 24.1773 18.7683 22.6681 20.1187C21.1734 21.4573 20.4267 22.1267 20.2254 22.3747C19.5761 23.1747 19.5481 23.24 19.3841 24.2573C19.3334 24.5733 19.3334 25.0493 19.3334 26H12.6667C12.6667 27.2467 12.6667 27.8693 12.9347 28.3333C13.1103 28.6374 13.3627 28.8898 13.6667 29.0653C14.1307 29.3333 14.7534 29.3333 16.0001 29.3333C17.2467 29.3333 17.8694 29.3333 18.3347 29.0667C18.6388 28.8911 18.8912 28.6387 19.0667 28.3347C19.3347 27.8707 19.3347 27.248 19.3347 26.0013" stroke="black" stroke-width="2"/>
<path d="M15.9998 22.6666V20M15.9998 20C16.4678 20 16.9277 19.8766 17.333 19.6426C17.7384 19.4086 18.075 19.072 18.3091 18.6666M15.9998 20C15.5317 20 15.0719 19.8766 14.6665 19.6426C14.2611 19.4086 13.9245 19.072 13.6904 18.6666" stroke="black" stroke-width="2" stroke-linecap="round"/>
</svg>
