<svg width="64" height="64" viewBox="0 0 64 64" fill="none" xmlns="http://www.w3.org/2000/svg">
<path d="M29.9603 6.33062C28.9789 6.73595 28.1016 7.61595 26.3443 9.37062C24.5869 11.1306 23.7069 12.008 23.3043 12.9866C23.0361 13.6338 22.8981 14.3274 22.8981 15.028C22.8981 15.7285 23.0361 16.4221 23.3043 17.0693C23.7069 18.0506 24.5843 18.928 26.3443 20.6853C28.0989 22.4426 28.9789 23.3226 29.9603 23.7253C31.2665 24.266 32.734 24.266 34.0403 23.7253C35.0216 23.3226 35.8989 22.4453 37.6563 20.6853C39.4163 18.928 40.2909 18.0506 40.6963 17.0693C41.237 15.763 41.237 14.2955 40.6963 12.9893C40.2909 12.008 39.4163 11.1306 37.6563 9.37329C35.8989 7.61329 35.0216 6.73595 34.0403 6.33062C32.734 5.78986 31.2665 5.78986 29.9603 6.33062ZM12.9869 23.3013C12.0083 23.7066 11.1283 24.584 9.37359 26.3413C7.61359 28.1013 6.73626 28.9786 6.33093 29.9573C6.06281 30.6045 5.9248 31.2981 5.9248 31.9986C5.9248 32.6991 6.06281 33.3928 6.33093 34.04C6.73626 35.0213 7.61626 35.8986 9.37093 37.656C11.1309 39.4133 12.0083 40.2906 12.9869 40.696C13.6341 40.9641 14.3277 41.1021 15.0283 41.1021C15.7288 41.1021 16.4224 40.9641 17.0696 40.696C18.0509 40.2906 18.9283 39.4133 20.6856 37.656C22.4456 35.8986 23.3203 35.0213 23.7256 34.04C24.2664 32.7337 24.2664 31.2662 23.7256 29.96C23.3203 28.9786 22.4456 28.0986 20.6856 26.3413C18.9283 24.584 18.0509 23.7066 17.0696 23.3013C15.7633 22.7605 14.2932 22.7605 12.9869 23.3013ZM43.3149 26.3413C41.5576 28.1013 40.6803 28.9786 40.2749 29.9573C40.0068 30.6045 39.8688 31.2981 39.8688 31.9986C39.8688 32.6991 40.0068 33.3928 40.2749 34.04C40.6803 35.0213 41.5576 35.8986 43.3149 37.656C45.0723 39.4133 45.9523 40.2906 46.9309 40.696C48.2372 41.2367 49.7047 41.2367 51.0109 40.696C51.9923 40.2906 52.8723 39.4133 54.6296 37.656C56.3869 35.8986 57.2616 35.0213 57.6696 34.04C58.2104 32.7337 58.2104 31.2662 57.6696 29.96C57.2616 28.9786 56.3869 28.0986 54.6296 26.3413C52.8696 24.584 51.9923 23.7066 51.0136 23.3013C50.3664 23.0332 49.6728 22.8952 48.9723 22.8952C48.2717 22.8952 47.5781 23.0332 46.9309 23.3013C45.9523 23.7066 45.0723 24.584 43.3149 26.3413ZM29.9603 40.272C28.9789 40.6773 28.1016 41.5573 26.3443 43.312C24.5869 45.072 23.7069 45.9493 23.3043 46.9306C22.7635 48.2369 22.7635 49.7044 23.3043 51.0106C23.7069 51.992 24.5843 52.8693 26.3443 54.6266C28.0989 56.384 28.9789 57.264 29.9603 57.6666C31.2665 58.2074 32.734 58.2074 34.0403 57.6666C35.0216 57.264 35.8989 56.3866 37.6563 54.6266C39.4163 52.8693 40.2909 51.992 40.6963 51.0106C41.2376 49.704 41.2376 48.2373 40.6963 46.9306C40.2909 45.9493 39.4163 45.0693 37.6563 43.3146C35.8989 41.5546 35.0216 40.6773 34.0403 40.272C32.734 39.7312 31.2665 39.7312 29.9603 40.272Z" stroke="black" stroke-width="4" stroke-linecap="round" stroke-linejoin="round"/>
</svg>
