<svg width="64" height="64" viewBox="0 0 64 64" fill="none" xmlns="http://www.w3.org/2000/svg">
<path d="M27.4882 36.512L40.4109 23.5893M53.6269 15.7066L42.7202 51.1573C41.7416 54.336 41.2536 55.9253 40.4082 56.4506C40.0483 56.6758 39.6398 56.8116 39.2168 56.8468C38.7938 56.8821 38.3684 56.8157 37.9762 56.6533C37.0562 56.272 36.3122 54.7867 34.8242 51.8107L27.9176 37.992C27.7748 37.6726 27.6025 37.3673 27.4029 37.08C27.2641 36.8993 27.1028 36.7371 26.9229 36.5973C26.6448 36.4049 26.3493 36.2388 26.0402 36.1013L12.1922 29.1733C9.21889 27.6853 7.73089 26.9413 7.34956 26.024C7.1869 25.6314 7.12042 25.2056 7.15568 24.7821C7.19093 24.3586 7.32689 23.9496 7.55222 23.5893C8.07756 22.7466 9.66689 22.256 12.8456 21.2773L48.2989 10.3706C50.7976 9.59998 52.0456 9.21598 52.8909 9.52798C53.254 9.66132 53.5838 9.87206 53.8573 10.1456C54.1308 10.4191 54.3415 10.7489 54.4749 11.112C54.7842 11.9546 54.4002 13.2026 53.6322 15.6986V15.704L53.6269 15.7066Z" stroke="black" stroke-width="4" stroke-linecap="round" stroke-linejoin="round"/>
</svg>
