<svg width="64" height="64" viewBox="0 0 64 64" fill="none" xmlns="http://www.w3.org/2000/svg">
<g id="Type=Question mark, Size=Medium">
<path id="Vector" d="M24.3893 24.1973C24.8432 22.7926 25.6771 21.541 26.7987 20.5812C27.9202 19.6214 29.2857 18.9908 30.7436 18.7594C32.2016 18.5281 33.6951 18.7048 35.0587 19.2702C36.4224 19.8356 37.6029 20.7675 38.4693 21.9627C39.3369 23.1561 39.8575 24.5662 39.9736 26.037C40.0898 27.5079 39.7969 28.9822 39.1273 30.297C38.4578 31.6117 37.4377 32.7157 36.1799 33.4869C34.922 34.2581 33.4754 34.6664 32 34.6667V37.3333M32.1333 45.3333V45.6H31.8667V45.3333H32.1333ZM8 47.4667V16.5333C8 13.5467 8 12.0533 8.58133 10.912C9.09333 9.90667 9.90667 9.09333 10.912 8.58133C12.0533 8 13.5467 8 16.5333 8H47.4667C50.4533 8 51.9467 8 53.0853 8.58133C54.0907 9.09333 54.9067 9.90667 55.4187 10.912C56 12.0507 56 13.544 56 16.5253V47.4773C56 50.4587 56 51.9493 55.4187 53.088C54.9064 54.0917 54.0896 54.9075 53.0853 55.4187C51.9467 56 50.456 56 47.4747 56H16.5253C13.544 56 12.0507 56 10.912 55.4187C9.90851 54.9074 9.09265 54.0915 8.58133 53.088C8 51.9467 8 50.4533 8 47.4667Z" stroke="#1B1B1B" stroke-width="4" stroke-linecap="round" stroke-linejoin="round"/>
</g>
</svg>
