<svg width="32" height="32" viewBox="0 0 32 32" fill="none" xmlns="http://www.w3.org/2000/svg">
<g id="Type=File Search, Size=Small">
<path id="Vector" d="M20.0003 24L17.7897 21.7907M17.3337 4H10.9337C9.44033 4 8.69366 4 8.12299 4.29067C7.62119 4.54625 7.21324 4.9542 6.95766 5.456C6.66699 6.02667 6.66699 6.77333 6.66699 8.26667V23.7333C6.66699 25.2267 6.66699 25.9733 6.95766 26.544C7.21332 27.0457 7.62125 27.4537 8.12299 27.7093C8.69233 28 9.43899 28 10.9297 28H21.071C22.5617 28 23.307 28 23.8763 27.7093C24.379 27.4533 24.787 27.0453 25.043 26.544C25.3337 25.9733 25.3337 25.2293 25.3337 23.7387V12.4347L25.3323 12M17.3337 4C17.715 4.004 17.955 4.01867 18.1843 4.07333C18.4563 4.14 18.7177 4.24667 18.9563 4.39333C19.2257 4.55867 19.4563 4.78933 19.9163 5.25067L24.0843 9.41733C24.5457 9.87867 24.775 10.108 24.9403 10.3773C25.087 10.6173 25.1937 10.876 25.2603 11.148C25.3137 11.3787 25.3283 11.62 25.3323 12M17.3337 4V7.73333C17.3337 9.22667 17.3337 9.97333 17.6243 10.544C17.88 11.0457 18.2879 11.4537 18.7897 11.7093C19.359 12 20.1057 12 21.5963 12H25.3323M15.3337 22.6667C14.4496 22.6667 13.6018 22.3155 12.9766 21.6904C12.3515 21.0652 12.0003 20.2174 12.0003 19.3333C12.0003 18.4493 12.3515 17.6014 12.9766 16.9763C13.6018 16.3512 14.4496 16 15.3337 16C16.2177 16 17.0656 16.3512 17.6907 16.9763C18.3158 17.6014 18.667 18.4493 18.667 19.3333C18.667 20.2174 18.3158 21.0652 17.6907 21.6904C17.0656 22.3155 16.2177 22.6667 15.3337 22.6667Z" stroke="#1B1B1B" stroke-width="2" stroke-linecap="round" stroke-linejoin="round"/>
</g>
</svg>
