<svg width="116" height="116" viewBox="0 0 116 116" fill="none" xmlns="http://www.w3.org/2000/svg">
<g id="Type=File Search, Size=Large">
<path id="Vector" d="M72.5003 87L64.4867 78.9912M62.8337 14.5H39.6337C34.2203 14.5 31.5137 14.5 29.445 15.5537C27.626 16.4802 26.1471 17.959 25.2207 19.778C24.167 21.8467 24.167 24.5533 24.167 29.9667V86.0333C24.167 91.4467 24.167 94.1533 25.2207 96.222C26.1474 98.0408 27.6262 99.5196 29.445 100.446C31.5088 101.5 34.2155 101.5 39.6192 101.5H76.3815C81.7852 101.5 84.487 101.5 86.5508 100.446C88.373 99.5183 89.852 98.0393 90.78 96.222C91.8337 94.1533 91.8337 91.4563 91.8337 86.0527V45.0757L91.8288 43.5M62.8337 14.5C64.216 14.5145 65.086 14.5677 65.9173 14.7658C66.9033 15.0075 67.8507 15.3942 68.7158 15.9258C69.6922 16.5252 70.5283 17.3613 72.1958 19.0337L87.3048 34.1378C88.9772 35.8102 89.8085 36.6415 90.4078 37.6178C90.9395 38.4878 91.3262 39.4255 91.5678 40.4115C91.7612 41.2477 91.8143 42.1225 91.8288 43.5M62.8337 14.5V28.0333C62.8337 33.4467 62.8337 36.1533 63.8873 38.222C64.8141 40.0408 66.2928 41.5196 68.1117 42.4463C70.1755 43.5 72.8822 43.5 78.2858 43.5H91.8288M55.5837 82.1667C52.379 82.1667 49.3055 80.8936 47.0395 78.6275C44.7734 76.3615 43.5003 73.288 43.5003 70.0833C43.5003 66.8786 44.7734 63.8052 47.0395 61.5391C49.3055 59.2731 52.379 58 55.5837 58C58.7884 58 61.8618 59.2731 64.1279 61.5391C66.3939 63.8052 67.667 66.8786 67.667 70.0833C67.667 73.288 66.3939 76.3615 64.1279 78.6275C61.8618 80.8936 58.7884 82.1667 55.5837 82.1667Z" stroke="#1B1B1B" stroke-width="6" stroke-linecap="round" stroke-linejoin="round"/>
</g>
</svg>
