<svg width="32" height="32" viewBox="0 0 32 32" fill="none" xmlns="http://www.w3.org/2000/svg">
<path d="M10.6671 10.6667H9.03642C7.30308 10.6667 6.43775 10.6667 5.82308 11.02C5.28175 11.3307 4.86575 11.82 4.64842 12.4054C4.40175 13.0707 4.54308 13.9254 4.82842 15.632V15.6347L6.07242 23.1014C6.28442 24.368 6.38975 25.0014 6.70575 25.4774C6.98575 25.896 7.37642 26.2267 7.83508 26.4334C8.35508 26.6667 8.99775 26.6667 10.2818 26.6667H21.7191C23.0031 26.6667 23.6444 26.6667 24.1657 26.4334C24.6244 26.2267 25.0164 25.896 25.2951 25.4774C25.6111 25.0014 25.7164 24.368 25.9271 23.1014L27.1724 15.6347V15.6294C27.4577 13.9227 27.5991 13.0694 27.3524 12.4054C27.1354 11.8206 26.7202 11.3304 26.1791 11.02C25.5644 10.6667 24.6977 10.6667 22.9644 10.6667H21.3337M10.6671 10.6667H21.3337M10.6671 10.6667C10.6671 9.25222 11.229 7.89567 12.2292 6.89547C13.2294 5.89528 14.5859 5.33337 16.0004 5.33337C17.4149 5.33337 18.7715 5.89528 19.7717 6.89547C20.7718 7.89567 21.3337 9.25222 21.3337 10.6667" stroke="black" stroke-width="3" stroke-linecap="round" stroke-linejoin="round"/>
</svg>
