<svg width="64" height="64" viewBox="0 0 64 64" fill="none" xmlns="http://www.w3.org/2000/svg">
<path d="M21.3332 21.3333H18.0719C14.6052 21.3333 12.8745 21.3333 11.6452 22.04C10.5625 22.6613 9.73052 23.64 9.29586 24.8106C8.80252 26.1413 9.08519 27.8506 9.65586 31.264V31.2693L12.1439 46.2026C12.5679 48.736 12.7785 50.0026 13.4105 50.9546C13.9705 51.792 14.7519 52.4533 15.6692 52.8666C16.7092 53.3333 17.9945 53.3333 20.5625 53.3333H43.4372C46.0052 53.3333 47.2879 53.3333 48.3305 52.8666C49.2479 52.4533 50.0319 51.792 50.5892 50.9546C51.2212 50.0026 51.4319 48.736 51.8532 46.2026L54.3439 31.2693V31.2586C54.9145 27.8453 55.1972 26.1386 54.7039 24.8106C54.2698 23.641 53.4394 22.6606 52.3572 22.04C51.1279 21.3333 49.3945 21.3333 45.9279 21.3333H42.6665M21.3332 21.3333H42.6665M21.3332 21.3333C21.3332 18.5043 22.457 15.7912 24.4574 13.7908C26.4578 11.7904 29.1709 10.6666 31.9999 10.6666C34.8288 10.6666 37.5419 11.7904 39.5423 13.7908C41.5427 15.7912 42.6665 18.5043 42.6665 21.3333" stroke="black" stroke-width="5" stroke-linecap="round" stroke-linejoin="round"/>
</svg>
