<svg width="64" height="64" viewBox="0 0 64 64" fill="none" xmlns="http://www.w3.org/2000/svg">
<path d="M48 53.3333L56 45.3333M56 45.3333L48 37.3333M56 45.3333H45.3333C41.7971 45.3333 38.4057 43.9285 35.9052 41.4281C33.4048 38.9276 32 35.5362 32 32C32 30.249 31.6551 28.5152 30.9851 26.8975C30.315 25.2798 29.3329 23.81 28.0948 22.5719C26.8566 21.3338 25.3868 20.3516 23.7691 19.6816C22.1514 19.0115 20.4176 18.6666 18.6667 18.6666H8M48 10.6666L56 18.6666M56 18.6666L48 26.6666M56 18.6666H45.3333C42.4477 18.6624 39.6393 19.5985 37.3333 21.3333M8 45.3333H18.6667C21.5523 45.3375 24.3607 44.4014 26.6667 42.6666" stroke="black" stroke-width="4" stroke-linecap="round" stroke-linejoin="round"/>
</svg>
