<svg width="32" height="32" viewBox="0 0 32 32" fill="none" xmlns="http://www.w3.org/2000/svg">
<g id="Type=Users, Size=Small">
<path id="Vector" d="M28 26.6667C28 24.344 25.7733 22.3694 22.6667 21.636M20 26.6667C20 23.72 16.4187 21.3334 12 21.3334C7.58133 21.3334 4 23.72 4 26.6667M20 17.3334C21.4145 17.3334 22.771 16.7715 23.7712 15.7713C24.7714 14.7711 25.3333 13.4145 25.3333 12C25.3333 10.5855 24.7714 9.22898 23.7712 8.22878C22.771 7.22859 21.4145 6.66669 20 6.66669M12 17.3334C10.5855 17.3334 9.22896 16.7715 8.22876 15.7713C7.22857 14.7711 6.66667 13.4145 6.66667 12C6.66667 10.5855 7.22857 9.22898 8.22876 8.22878C9.22896 7.22859 10.5855 6.66669 12 6.66669C13.4145 6.66669 14.771 7.22859 15.7712 8.22878C16.7714 9.22898 17.3333 10.5855 17.3333 12C17.3333 13.4145 16.7714 14.7711 15.7712 15.7713C14.771 16.7715 13.4145 17.3334 12 17.3334Z" stroke="black" stroke-width="2" stroke-linecap="round" stroke-linejoin="round"/>
</g>
</svg>
