<svg width="64" height="64" viewBox="0 0 64 64" fill="none" xmlns="http://www.w3.org/2000/svg">
<path d="M56 53.3334C56 48.688 51.5467 44.7387 45.3333 43.272M40 53.3334C40 47.44 32.8373 42.6667 24 42.6667C15.1627 42.6667 8 47.44 8 53.3334M40 34.6667C42.829 34.6667 45.5421 33.5429 47.5425 31.5425C49.5429 29.5421 50.6667 26.829 50.6667 24C50.6667 21.1711 49.5429 18.458 47.5425 16.4576C45.5421 14.4572 42.829 13.3334 40 13.3334M24 34.6667C21.171 34.6667 18.4579 33.5429 16.4575 31.5425C14.4571 29.5421 13.3333 26.829 13.3333 24C13.3333 21.1711 14.4571 18.458 16.4575 16.4576C18.4579 14.4572 21.171 13.3334 24 13.3334C26.829 13.3334 29.5421 14.4572 31.5425 16.4576C33.5429 18.458 34.6667 21.1711 34.6667 24C34.6667 26.829 33.5429 29.5421 31.5425 31.5425C29.5421 33.5429 26.829 34.6667 24 34.6667Z" stroke="black" stroke-width="4" stroke-linecap="round" stroke-linejoin="round"/>
</svg>
