<svg width="32" height="32" viewBox="0 0 32 32" fill="none" xmlns="http://www.w3.org/2000/svg">
<g id="Type=User Voice, Size=Small">
<path id="Vector" d="M20 25.3333C20 22.3867 16.4187 20 12 20C7.58133 20 4 22.3867 4 25.3333M22.4373 6.896C22.9328 7.39116 23.3258 7.97909 23.5939 8.62619C23.8621 9.27329 24.0001 9.96688 24.0001 10.6673C24.0001 11.3678 23.8621 12.0614 23.5939 12.7085C23.3258 13.3556 22.9328 13.9435 22.4373 14.4387M25.3333 4C26.209 4.87538 26.9036 5.9147 27.3775 7.05858C27.8514 8.20246 28.0953 9.4285 28.0953 10.6667C28.0953 11.9048 27.8514 13.1309 27.3775 14.2748C26.9036 15.4186 26.209 16.4579 25.3333 17.3333M12 16C10.5855 16 9.22896 15.4381 8.22876 14.4379C7.22857 13.4377 6.66667 12.0812 6.66667 10.6667C6.66667 9.25218 7.22857 7.89562 8.22876 6.89543C9.22896 5.89524 10.5855 5.33333 12 5.33333C13.4145 5.33333 14.771 5.89524 15.7712 6.89543C16.7714 7.89562 17.3333 9.25218 17.3333 10.6667C17.3333 12.0812 16.7714 13.4377 15.7712 14.4379C14.771 15.4381 13.4145 16 12 16Z" stroke="#1B1B1B" stroke-width="2" stroke-linecap="round" stroke-linejoin="round"/>
</g>
</svg>
