<svg width="116" height="116" viewBox="0 0 116 116" fill="none" xmlns="http://www.w3.org/2000/svg">
<path d="M101.5 96.6668C101.5 88.2471 93.4283 81.0889 82.1667 78.4306M72.5 96.6668C72.5 85.9851 59.5177 77.3334 43.5 77.3334C27.4823 77.3334 14.5 85.9851 14.5 96.6668M72.5 62.8334C77.6275 62.8334 82.545 60.7965 86.1707 57.1708C89.7964 53.5451 91.8333 48.6276 91.8333 43.5001C91.8333 38.3726 89.7964 33.4551 86.1707 29.8293C82.545 26.2036 77.6275 24.1667 72.5 24.1667M43.5 62.8334C38.3725 62.8334 33.455 60.7965 29.8293 57.1708C26.2036 53.5451 24.1667 48.6276 24.1667 43.5001C24.1667 38.3726 26.2036 33.4551 29.8293 29.8293C33.455 26.2036 38.3725 24.1667 43.5 24.1667C48.6275 24.1667 53.545 26.2036 57.1707 29.8293C60.7964 33.4551 62.8333 38.3726 62.8333 43.5001C62.8333 48.6276 60.7964 53.5451 57.1707 57.1708C53.545 60.7965 48.6275 62.8334 43.5 62.8334Z" stroke="black" stroke-width="6" stroke-linecap="round" stroke-linejoin="round"/>
</svg>
