<svg width="116" height="116" viewBox="0 0 116 116" fill="none" xmlns="http://www.w3.org/2000/svg">
<g id="Type=User Voice, Size=Large">
<path id="Vector" d="M72.5 91.8333C72.5 81.1517 59.5177 72.5 43.5 72.5C27.4823 72.5 14.5 81.1517 14.5 91.8333M81.3353 24.998C83.1313 26.793 84.556 28.9242 85.528 31.2699C86.5 33.6157 87.0003 36.1299 87.0003 38.6691C87.0003 41.2082 86.5 43.7225 85.528 46.0682C84.556 48.414 83.1313 50.5452 81.3353 52.3402M91.8333 14.5C95.0076 17.6733 97.5256 21.4408 99.2435 25.5874C100.961 29.7339 101.846 34.1783 101.846 38.6667C101.846 43.155 100.961 47.5994 99.2435 51.746C97.5256 55.8926 95.0076 59.6601 91.8333 62.8333M43.5 58C38.3725 58 33.455 55.9631 29.8293 52.3374C26.2036 48.7117 24.1667 43.7942 24.1667 38.6667C24.1667 33.5391 26.2036 28.6216 29.8293 24.9959C33.455 21.3702 38.3725 19.3333 43.5 19.3333C48.6275 19.3333 53.545 21.3702 57.1707 24.9959C60.7964 28.6216 62.8333 33.5391 62.8333 38.6667C62.8333 43.7942 60.7964 48.7117 57.1707 52.3374C53.545 55.9631 48.6275 58 43.5 58Z" stroke="#1B1B1B" stroke-width="6" stroke-linecap="round" stroke-linejoin="round"/>
</g>
</svg>
