<svg width="60" height="60" viewBox="0 0 60 60" fill="none" xmlns="http://www.w3.org/2000/svg">
<g id="Group">
<path id="Vector" d="M25.2192 41.5031L13.9045 30.1858L17.6752 26.4151L25.2192 33.9564L40.3019 18.8711L44.0752 22.6444L25.2192 41.4978V41.5031Z" fill="#27B035"/>
<path id="Vector_2" fill-rule="evenodd" clip-rule="evenodd" d="M0.571289 29.9993C0.571289 13.7993 13.7046 0.666016 29.9046 0.666016C46.1046 0.666016 59.238 13.7993 59.238 29.9993C59.238 46.1993 46.1046 59.3327 29.9046 59.3327C13.7046 59.3327 0.571289 46.1993 0.571289 29.9993ZM29.9046 53.9994C26.7529 53.9994 23.632 53.3786 20.7202 52.1725C17.8084 50.9663 15.1627 49.1985 12.9341 46.9699C10.7055 44.7413 8.93763 42.0956 7.73151 39.1838C6.5254 36.2719 5.90462 33.1511 5.90462 29.9993C5.90462 26.8476 6.5254 23.7268 7.73151 20.8149C8.93763 17.9031 10.7055 15.2574 12.9341 13.0288C15.1627 10.8002 17.8084 9.03235 20.7202 7.82624C23.632 6.62013 26.7529 5.99935 29.9046 5.99935C36.2698 5.99935 42.3743 8.52791 46.8752 13.0288C51.3761 17.5297 53.9046 23.6342 53.9046 29.9993C53.9046 36.3645 51.3761 42.469 46.8752 46.9699C42.3743 51.4708 36.2698 53.9994 29.9046 53.9994Z" fill="#27B035"/>
</g>
</svg>
