<svg width="32" height="32" viewBox="0 0 32 32" fill="none" xmlns="http://www.w3.org/2000/svg">
<g id="Type=Figma, Size=Small">
<path id="Vector" d="M19.3775 12.8C18.4816 12.8 17.6225 13.1559 16.989 13.7893C16.3556 14.4228 15.9997 15.2819 15.9997 16.1778C15.9997 17.0736 16.3556 17.9328 16.989 18.5662C17.6225 19.1997 18.4816 19.5556 19.3775 19.5556C20.2733 19.5556 21.1325 19.1997 21.7659 18.5662C22.3994 17.9328 22.7553 17.0736 22.7553 16.1778C22.7553 15.2819 22.3994 14.4228 21.7659 13.7893C21.1325 13.1559 20.2733 12.8 19.3775 12.8ZM19.3775 12.8H15.9997M19.3775 12.8C20.2733 12.8 21.1325 12.4441 21.7659 11.8107C22.3994 11.1772 22.7553 10.3181 22.7553 9.42222C22.7553 8.52638 22.3994 7.66723 21.7659 7.03377C21.1325 6.40031 20.2733 6.04444 19.3775 6.04444H15.9997M12.6219 19.5556C11.7261 19.5556 10.8669 19.9114 10.2335 20.5449C9.60001 21.1783 9.24414 22.0375 9.24414 22.9333C9.24414 23.8292 9.60001 24.6883 10.2335 25.3218C10.8669 25.9552 11.7261 26.3111 12.6219 26.3111C13.5178 26.3111 14.3769 25.9552 15.0104 25.3218C15.6438 24.6883 15.9997 23.8292 15.9997 22.9333V19.5556M12.6219 19.5556H15.9997M12.6219 19.5556C11.7261 19.5556 10.8669 19.1997 10.2335 18.5662C9.60001 17.9328 9.24414 17.0736 9.24414 16.1778C9.24414 15.2819 9.60001 14.4228 10.2335 13.7893C10.8669 13.1559 11.7261 12.8 12.6219 12.8M15.9997 19.5556V12.8M15.9997 6.04444V12.8M15.9997 6.04444H12.6219C11.7261 6.04444 10.8669 6.40031 10.2335 7.03377C9.60001 7.66723 9.24414 8.52638 9.24414 9.42222C9.24414 10.3181 9.60001 11.1772 10.2335 11.8107C10.8669 12.4441 11.7261 12.8 12.6219 12.8M15.9997 12.8H12.6219" stroke="#1E1E1E" stroke-width="2"/>
</g>
</svg>
