<svg width="64" height="64" viewBox="0 0 64 64" fill="none" xmlns="http://www.w3.org/2000/svg">
<path d="M16.0003 29.3333V16.5333C16.0003 13.5467 16.0003 12.0533 16.5817 10.912C17.0937 9.90667 17.907 9.09333 18.9123 8.58133C20.0537 8 21.547 8 24.5337 8H37.3337M37.3337 8C38.0963 8.00533 38.5763 8.03733 39.0377 8.14667C39.5819 8.27775 40.102 8.49373 40.579 8.78667C41.115 9.11467 41.579 9.57867 42.5017 10.5013L50.835 18.8347C51.7577 19.7573 52.2163 20.216 52.5443 20.7547C52.8375 21.2315 53.0535 21.7517 53.1843 22.296C53.2963 22.7573 53.323 23.24 53.3337 24M37.3337 8V15.4667C37.3337 18.4533 37.3337 19.9467 37.915 21.088C38.4263 22.0915 39.2422 22.9073 40.2457 23.4187C41.3843 24 42.8777 24 45.859 24H53.3337M53.3337 24V47.4773C53.3337 50.4587 53.3337 51.9493 52.7523 53.088C52.2407 54.0913 51.4249 54.9071 50.4217 55.4187C49.2803 56 47.787 56 44.8083 56H34.667M24.0003 37.3333L29.3337 42.6667M10.667 56V49.3333L30.667 29.3333L37.3337 36L17.3337 56H10.667Z" stroke="black" stroke-width="4" stroke-linecap="round" stroke-linejoin="round"/>
</svg>
