<svg width="32" height="32" viewBox="0 0 32 32" fill="none" xmlns="http://www.w3.org/2000/svg">
<g id="Type=House, Size=Small">
<path id="Vector" d="M26.6663 22.6667V15.2693C26.6663 14.5573 26.6663 14.2013 26.5797 13.8693C26.503 13.5759 26.3767 13.2976 26.2063 13.0467C26.013 12.7627 25.7463 12.5267 25.209 12.0587L18.809 6.45867C17.8143 5.588 17.3157 5.152 16.7557 4.98667C16.2623 4.84 15.737 4.84 15.2423 4.98667C14.6823 5.152 14.1863 5.58667 13.1917 6.456L6.79034 12.0587C6.25434 12.528 5.98634 12.7627 5.79434 13.0453C5.62341 13.2966 5.49669 13.5753 5.41967 13.8693C5.33301 14.2 5.33301 14.5573 5.33301 15.2693V22.6667C5.33301 23.9093 5.33301 24.5307 5.53567 25.02C5.66954 25.3436 5.86584 25.6377 6.11338 25.8855C6.36091 26.1333 6.65483 26.3298 6.97834 26.464C7.46901 26.6667 8.09034 26.6667 9.33301 26.6667C10.5757 26.6667 11.197 26.6667 11.6877 26.464C12.0112 26.3298 12.3051 26.1333 12.5526 25.8855C12.8002 25.6377 12.9965 25.3436 13.1303 25.02C13.333 24.5307 13.333 23.9093 13.333 22.6667V21.3333C13.333 20.6261 13.614 19.9478 14.1141 19.4477C14.6142 18.9476 15.2924 18.6667 15.9997 18.6667C16.7069 18.6667 17.3852 18.9476 17.8853 19.4477C18.3854 19.9478 18.6663 20.6261 18.6663 21.3333V22.6667C18.6663 23.9093 18.6663 24.5307 18.869 25.02C19.0029 25.3436 19.1992 25.6377 19.4467 25.8855C19.6942 26.1333 19.9882 26.3298 20.3117 26.464C20.8023 26.6667 21.4237 26.6667 22.6663 26.6667C23.909 26.6667 24.5303 26.6667 25.021 26.464C25.3445 26.3298 25.6384 26.1333 25.886 25.8855C26.1335 25.6377 26.3298 25.3436 26.4637 25.02C26.6663 24.5307 26.6663 23.9093 26.6663 22.6667Z" stroke="#1B1B1B" stroke-width="3" stroke-linecap="round" stroke-linejoin="round"/>
</g>
</svg>
