<svg width="116" height="116" viewBox="0 0 116 116" fill="none" xmlns="http://www.w3.org/2000/svg">
<path d="M45.9218 94.2549C45.9218 90.8039 45.9218 89.0832 45.7333 87.9377C45.1436 84.2499 45.0421 84.013 42.6883 81.1131C41.9536 80.2092 39.247 77.7877 33.8336 72.9351C28.3617 68.0409 24.5047 61.6008 22.773 54.4667C21.0413 47.3326 21.5164 39.8409 24.1355 32.9827C26.7547 26.1246 31.3944 20.2233 37.4407 16.0597C43.4871 11.8961 50.6551 9.66638 57.9964 9.66565C65.3376 9.66492 72.5061 11.8932 78.5533 16.0556C84.6005 20.218 89.2414 26.1183 91.8619 32.9759C94.4824 39.8336 94.959 47.3252 93.2287 54.4596C91.4984 61.5941 87.6427 68.035 82.1718 72.9302C76.7536 77.7829 74.047 80.2092 73.3171 81.1082C70.9633 84.0082 70.8618 84.2451 70.2673 87.9329C70.0836 89.0784 70.0836 90.8039 70.0836 94.2501H45.917C45.917 98.7692 45.917 101.026 46.8885 102.708C47.5248 103.81 48.4399 104.726 49.542 105.362C51.224 106.333 53.4811 106.333 58.0003 106.333C62.5195 106.333 64.7766 106.333 66.4635 105.367C67.5655 104.73 68.4807 103.815 69.117 102.713C70.0885 101.031 70.0885 98.7741 70.0885 94.2549" stroke="black" stroke-width="6"/>
<path d="M58.0002 82.1667V72.5001M58.0002 72.5001C59.697 72.5001 61.3639 72.053 62.8334 71.2047C64.3028 70.3563 65.5231 69.1362 66.3716 67.6667M58.0002 72.5001C56.3035 72.5001 54.6366 72.053 53.1671 71.2047C51.6977 70.3563 50.4774 69.1362 49.6289 67.6667" stroke="black" stroke-width="6" stroke-linecap="round"/>
</svg>
