<svg width="64" height="64" viewBox="0 0 64 64" fill="none" xmlns="http://www.w3.org/2000/svg">
<g id="Type=Mute, Size=Medium">
<path id="Vector" d="M26.6662 37.3333L31.9995 32M31.9995 32L37.3329 26.6667M31.9995 32L26.6662 26.6667M31.9995 32L37.3329 37.3333M31.9995 56C27.7969 56.0068 23.6668 54.9048 20.0262 52.8053L20.0155 52.7973C19.6742 52.6027 19.5035 52.504 19.3409 52.4587C19.1963 52.4172 19.0455 52.4019 18.8955 52.4133C18.7249 52.424 18.5489 52.4827 18.1969 52.6L12.0475 54.6507L12.0315 54.656C10.7382 55.088 10.0929 55.3013 9.66086 55.1493C9.47413 55.0827 9.30455 54.9754 9.16435 54.8352C9.02415 54.695 8.91685 54.5254 8.85019 54.3387C8.69819 53.9067 8.91419 53.2587 9.34619 51.96V51.952L11.3995 45.8027C11.5169 45.4507 11.5729 45.2747 11.5862 45.1067C11.5967 44.9558 11.5814 44.8043 11.5409 44.6587C11.4542 44.4224 11.3405 44.1969 11.2022 43.9867L11.1942 43.9733C8.55922 39.3959 7.50781 34.0771 8.20294 28.8413C8.89807 23.6056 11.3009 18.7454 15.039 15.0141C18.7771 11.2827 23.6416 8.88872 28.8786 8.20308C34.1156 7.51745 39.4325 8.57849 44.0052 11.2218C48.5779 13.865 52.1509 17.9429 54.1704 22.8232C56.19 27.7035 56.5432 33.1137 55.1754 38.2152C53.8077 43.3167 50.7952 47.8245 46.6051 51.04C42.415 54.2554 37.2812 55.9988 31.9995 56Z" stroke="#1B1B1B" stroke-width="4" stroke-linecap="round" stroke-linejoin="round"/>
</g>
</svg>
