<svg width="64" height="64" viewBox="0 0 64 64" fill="none" xmlns="http://www.w3.org/2000/svg">
<g id="Type=File Search, Size=Medium">
<path id="Vector" d="M39.9997 48L35.5783 43.5813M34.6663 8H21.8663C18.8797 8 17.3863 8 16.245 8.58133C15.2414 9.0925 14.4255 9.9084 13.9143 10.912C13.333 12.0533 13.333 13.5467 13.333 16.5333V47.4667C13.333 50.4533 13.333 51.9467 13.9143 53.088C14.4257 54.0915 15.2415 54.9074 16.245 55.4187C17.3837 56 18.877 56 21.8583 56H42.141C45.1223 56 46.613 56 47.7517 55.4187C48.757 54.9067 49.573 54.0907 50.085 53.088C50.6663 51.9467 50.6663 50.4587 50.6663 47.4773V24.8693L50.6637 24M34.6663 8C35.429 8.008 35.909 8.03733 36.3677 8.14667C36.9117 8.28 37.4343 8.49333 37.9117 8.78667C38.4503 9.11733 38.9117 9.57867 39.8317 10.5013L48.1677 18.8347C49.0903 19.7573 49.549 20.216 49.8797 20.7547C50.173 21.2347 50.3863 21.752 50.5197 22.296C50.6263 22.7573 50.6557 23.24 50.6637 24M34.6663 8V15.4667C34.6663 18.4533 34.6663 19.9467 35.2477 21.088C35.759 22.0915 36.5749 22.9073 37.5783 23.4187C38.717 24 40.2103 24 43.1917 24H50.6637M30.6663 45.3333C28.8982 45.3333 27.2025 44.631 25.9523 43.3807C24.7021 42.1305 23.9997 40.4348 23.9997 38.6667C23.9997 36.8986 24.7021 35.2029 25.9523 33.9526C27.2025 32.7024 28.8982 32 30.6663 32C32.4344 32 34.1301 32.7024 35.3804 33.9526C36.6306 35.2029 37.333 36.8986 37.333 38.6667C37.333 40.4348 36.6306 42.1305 35.3804 43.3807C34.1301 44.631 32.4344 45.3333 30.6663 45.3333Z" stroke="#1B1B1B" stroke-width="4" stroke-linecap="round" stroke-linejoin="round"/>
</g>
</svg>
