<svg width="116" height="116" viewBox="0 0 116 116" fill="none" xmlns="http://www.w3.org/2000/svg">
<path d="M38.6665 38.6667H32.7553C26.472 38.6667 23.3351 38.6667 21.107 39.9475C19.1446 41.0737 17.6366 42.8475 16.8488 44.9694C15.9546 47.3812 16.467 50.4794 17.5013 56.666V56.6757L22.0108 83.7424C22.7793 88.334 23.1611 90.6299 24.3066 92.3554C25.3216 93.873 26.7378 95.0717 28.4005 95.8209C30.2855 96.6667 32.6151 96.6667 37.2696 96.6667H78.73C83.3845 96.6667 85.7093 96.6667 87.5991 95.8209C89.2618 95.0717 90.6828 93.873 91.693 92.3554C92.8385 90.6299 93.2203 88.334 93.984 83.7424L98.4983 56.6757V56.6564C99.5326 50.4697 100.045 47.3764 99.1508 44.9694C98.364 42.8495 96.859 41.0725 94.8975 39.9475C92.6693 38.6667 89.5276 38.6667 83.2443 38.6667H77.3331M38.6665 38.6667H77.3331M38.6665 38.6667C38.6665 33.5392 40.7034 28.6217 44.3291 24.996C47.9548 21.3703 52.8723 19.3334 57.9998 19.3334C63.1273 19.3334 68.0448 21.3703 71.6705 24.996C75.2962 28.6217 77.3331 33.5392 77.3331 38.6667" stroke="black" stroke-width="7" stroke-linecap="round" stroke-linejoin="round"/>
</svg>
