<svg width="64" height="64" viewBox="0 0 64 64" fill="none" xmlns="http://www.w3.org/2000/svg">
<g id="Type=User Voice, Size=Medium">
<path id="Vector" d="M40 50.6667C40 44.7733 32.8373 40 24 40C15.1627 40 8 44.7733 8 50.6667M44.8747 13.792C45.8655 14.7823 46.6516 15.9582 47.1879 17.2524C47.7241 18.5466 48.0002 19.9338 48.0002 21.3347C48.0002 22.7356 47.7241 24.1228 47.1879 25.417C46.6516 26.7112 45.8655 27.887 44.8747 28.8773M50.6667 8C52.418 9.75077 53.8072 11.8294 54.755 14.1172C55.7029 16.4049 56.1907 18.857 56.1907 21.3333C56.1907 23.8097 55.7029 26.2617 54.755 28.5495C53.8072 30.8373 52.418 32.9159 50.6667 34.6667M24 32C21.171 32 18.4579 30.8762 16.4575 28.8758C14.4571 26.8754 13.3333 24.1623 13.3333 21.3333C13.3333 18.5044 14.4571 15.7912 16.4575 13.7909C18.4579 11.7905 21.171 10.6667 24 10.6667C26.829 10.6667 29.5421 11.7905 31.5425 13.7909C33.5429 15.7912 34.6667 18.5044 34.6667 21.3333C34.6667 24.1623 33.5429 26.8754 31.5425 28.8758C29.5421 30.8762 26.829 32 24 32Z" stroke="#1B1B1B" stroke-width="4" stroke-linecap="round" stroke-linejoin="round"/>
</g>
</svg>
